<?xml version="1.0" encoding="utf-8"?>
<svg viewBox="363.982 227.08 225.248 68.159" xmlns="http://www.w3.org/2000/svg" xmlns:bx="https://boxy-svg.com">
  <defs>
    <style bx:fonts="Anek Devanagari">@import url(https://fonts.googleapis.com/css2?family=Anek+Devanagari%3Aital%2Cwght%400%2C100%3B0%2C200%3B0%2C300%3B0%2C400%3B0%2C500%3B0%2C600%3B0%2C700%3B0%2C800&amp;display=swap);</style>
  </defs>
  <desc>Created with Fabric.js 5.2.4</desc>
  <g transform="matrix(1, 0, 0, 1, 472.933205, 254.825093)" style="">
    <g style="" vector-effect="non-scaling-stroke">
      <g transform="matrix(1 0 0 1 31.09 -11.35)" style="">
        <path style="stroke: none; stroke-width: 1; stroke-dasharray: none; stroke-linecap: butt; stroke-dashoffset: 0; stroke-linejoin: miter; stroke-miterlimit: 4; fill: rgb(0,88,89); fill-rule: nonzero; opacity: 1;" vector-effect="non-scaling-stroke" transform=" translate(-9869.11, -2840.19)" d="M 9899.488 2834.305 L 9899.488 2843.147 L 9887.3 2843.147 L 9890.4 2837.647 L 9890.4 2834.305 L 9875.43 2834.305 L 9875.43 2837.647 L 9878.53 2843.147 L 9867.980000000001 2843.147 L 9858.337000000001 2833.2599999999998 L 9855.274000000001 2836.0449999999996 L 9862.237000000001 2843.1449999999995 L 9856.824 2843.1449999999995 C 9856.878 2843.1909999999993 9856.937 2843.2449999999994 9857 2843.3009999999995 L 9857.35 2843.6479999999997 C 9857.556 2843.8569999999995 9858.288 2844.624 9858.602 2845.0069999999996 C 9858.705513986017 2845.113684006155 9858.705513986017 2845.283315993844 9858.602 2845.3899999999994 L 9856.842 2847.1159999999995 L 9910.213 2847.1159999999995 L 9910.213 2834.3039999999996 Z M 9882.914999999999 2843.147 L 9880.546999999999 2838.273 L 9885.283 2838.273 Z M 9906.414999999999 2843.147 L 9903.143999999998 2843.147 L 9903.143999999998 2838.273 L 9906.414999999999 2838.273 Z M 9855.744999999999 2843.336 L 9855.966999999999 2843.147 L 9846.881 2843.147 L 9846.881 2834.305 L 9836.157 2834.305 L 9836.157 2843.147 L 9828.010999999999 2843.147 L 9828.010999999999 2847.1169999999997 L 9855.721999999998 2847.1169999999997 Q 9855.000999999998 2846.437 9854.281999999997 2845.669 C 9854.15674646048 2845.5632501098617 9854.078980082852 2845.411805372748 9854.06601981155 2845.248393256325 C 9854.053059540247 2845.084981139902 9854.105981601853 2844.923171457608 9854.212999999998 2844.799 C 9855.013 2844.033 9855.466 2843.58 9855.745 2843.337 Z M 9843.086 2843.147 L 9839.814999999999 2843.147 L 9839.814999999999 2838.273 L 9843.086 2838.273 Z" stroke-linecap="round"/>
      </g>
      <g transform="matrix(0 1 -1 0 1.47 -21.33)" id="Rectangle_20014">
        <rect style="stroke: none; stroke-width: 1; stroke-dasharray: none; stroke-linecap: butt; stroke-dashoffset: 0; stroke-linejoin: miter; stroke-miterlimit: 4; fill: rgb(210,210,210); fill-rule: nonzero; opacity: 1;" vector-effect="non-scaling-stroke" x="-1.07" y="-11.475" rx="0" ry="0" width="2.14" height="22.95"/>
      </g>
      <g transform="matrix(0 1 -1 0 43.8 -21.33)" id="Rectangle_20015">
        <rect style="stroke: none; stroke-width: 1; stroke-dasharray: none; stroke-linecap: butt; stroke-dashoffset: 0; stroke-linejoin: miter; stroke-miterlimit: 4; fill: rgb(210,210,210); fill-rule: nonzero; opacity: 1;" vector-effect="non-scaling-stroke" x="-1.07" y="-14.365" rx="0" ry="0" width="2.14" height="28.73"/>
      </g>
      <g transform="matrix(1 0 0 1 66.76 -22.87)">
        <path style="stroke: none; stroke-width: 1; stroke-dasharray: none; stroke-linecap: butt; stroke-dashoffset: 0; stroke-linejoin: miter; stroke-miterlimit: 4; fill: rgb(0,88,89); fill-rule: nonzero; opacity: 1;" vector-effect="non-scaling-stroke" transform=" translate(-10189.74, -2799.74)" d="M 10189.185 2797.786 L 10188.859 2800.329 L 10184.244 2800.3650000000002 L 10183.988000000001 2802.358 L 10194.816 2802.351 L 10195.487000000001 2797.129 Z M 10193.121 2800.317 L 10190.821 2800.3 L 10190.91 2799.6130000000003 L 10193.248 2799.3540000000003 Z" stroke-linecap="round"/>
      </g>
      <g transform="matrix(0 1 -1 0 18.63 22.97)" id="Rectangle_20016">
        <rect style="stroke: none; stroke-width: 1; stroke-dasharray: none; stroke-linecap: butt; stroke-dashoffset: 0; stroke-linejoin: miter; stroke-miterlimit: 4; fill: rgb(210,210,210); fill-rule: nonzero; opacity: 1;" vector-effect="non-scaling-stroke" x="-1.07" y="-14.21" rx="0" ry="0" width="2.14" height="28.42"/>
      </g>
      <g transform="matrix(0 1 -1 0 63.57 22.97)" id="Rectangle_20017">
        <rect style="stroke: none; stroke-width: 1; stroke-dasharray: none; stroke-linecap: butt; stroke-dashoffset: 0; stroke-linejoin: miter; stroke-miterlimit: 4; fill: rgb(210,210,210); fill-rule: nonzero; opacity: 1;" vector-effect="non-scaling-stroke" x="-1.07" y="-9.21" rx="0" ry="0" width="2.14" height="18.42"/>
      </g>
      <g transform="matrix(1 0 0 1 8.05 4.65)">
        <path style="stroke: none; stroke-width: 1; stroke-dasharray: none; stroke-linecap: butt; stroke-dashoffset: 0; stroke-linejoin: miter; stroke-miterlimit: 4; fill: rgb(0,88,89); fill-rule: nonzero; opacity: 1;" vector-effect="non-scaling-stroke" transform=" translate(-9909.25, -2938.94)" d="M 9908.73 2941.047 C 9908.95322189469 2941.2831024165166 9909.323824496185 2941.29861807567 9909.565999999999 2941.082 L 9911.48 2939.167 C 9911.575695610698 2939.0755140879783 9911.59094141107 2938.9281380177217 9911.516 2938.819 C 9911.203 2938.436 9910.436 2937.6349999999998 9910.228 2937.426 L 9909.878999999999 2937.078 C 9909.461 2936.695 9909.216999999999 2936.556 9909.113 2936.695 L 9908.625 2937.1130000000003 C 9908.347 2937.3570000000004 9907.894 2937.8440000000005 9907.094 2938.6130000000003 C 9906.987496255751 2938.737395694465 9906.934908209438 2938.899079606988 9906.947855415227 2939.0623269843095 C 9906.960802621013 2939.2255743616315 9907.038219334096 2939.376947551858 9907.162999999999 2939.483 Q 9907.948 2940.317 9908.73 2941.047 Z" stroke-linecap="round"/>
      </g>
      <g transform="matrix(1 0 0 1 24.17 9.21)">
        <path style="stroke: none; stroke-width: 1; stroke-dasharray: none; stroke-linecap: butt; stroke-dashoffset: 0; stroke-linejoin: miter; stroke-miterlimit: 4; fill: rgb(0,88,89); fill-rule: nonzero; opacity: 1;" vector-effect="non-scaling-stroke" transform=" translate(-9978.37, -2929.53)" d="M 9983.461 2939.871 L 9973.152 2939.871 L 9973.152 2919.19 L 9977.366 2919.19 L 9977.296 2935.9 L 9983.591 2935.9 L 9983.429 2936.04 C 9983.15 2936.283 9982.7 2936.74 9981.897 2937.5 C 9981.790244049203 2937.624741980776 9981.737609513137 2937.786889497901 9981.750747404996 2937.9505500936357 C 9981.763885296856 2938.11421068937 9981.84171198438 2938.265885401849 9981.967 2938.372 Q 9982.715 2939.168 9983.461 2939.871 Z" stroke-linecap="round"/>
      </g>
      <g transform="matrix(1 0 0 1 31.75 18.81)">
        <path style="stroke: none; stroke-width: 1; stroke-dasharray: none; stroke-linecap: butt; stroke-dashoffset: 0; stroke-linejoin: miter; stroke-miterlimit: 4; fill: rgb(0,88,89); fill-rule: nonzero; opacity: 1;" vector-effect="non-scaling-stroke" transform=" translate(-10031.36, -3016.24)" d="M 10032.843 3016.975 L 10029.882000000001 3016.975 L 10031.347000000002 3015.5099999999998 C 10031.845 3016.009 10032.344 3016.508 10032.843 3016.975 Z" stroke-linecap="round"/>
      </g>
      <g transform="matrix(1 0 0 1 31.86 16.33)">
        <path style="stroke: none; stroke-width: 1; stroke-dasharray: none; stroke-linecap: butt; stroke-dashoffset: 0; stroke-linejoin: miter; stroke-miterlimit: 4; fill: rgb(0,88,89); fill-rule: nonzero; opacity: 1;" vector-effect="non-scaling-stroke" transform=" translate(-10031.86, -3003.7)" d="M 10033.357 3002.95 L 10033.193 3003.0899999999997 C 10032.917 3003.3329999999996 10032.533 3003.7499999999995 10031.8 3004.446 C 10031.453 3004.063 10030.965999999999 3003.576 10030.826 3003.403 L 10030.476999999999 3003.0539999999996 C 10030.436999999998 3003.0159999999996 10030.396999999999 3002.9819999999995 10030.360999999999 3002.9539999999997 Z" stroke-linecap="round"/>
      </g>
      <g transform="matrix(1 0 0 1 38.64 13.15)">
        <path style="stroke: none; stroke-width: 1; stroke-dasharray: none; stroke-linecap: butt; stroke-dashoffset: 0; stroke-linejoin: miter; stroke-miterlimit: 4; fill: rgb(0,88,89); fill-rule: nonzero; opacity: 1;" vector-effect="non-scaling-stroke" transform=" translate(-10054.19, -2965.04)" d="M 10058.594 2958.63 L 10058.594 2971.442 L 10049.794 2971.442 L 10051.603 2969.664 C 10051.708664276412 2969.5581967915123 10051.708664276412 2969.3868032084883 10051.603 2969.2810000000004 C 10051.291 2968.8980000000006 10050.56 2968.1320000000005 10050.349999999999 2967.9240000000004 L 10050.002999999999 2967.5750000000003 C 10049.962 2967.5370000000003 10049.922999999999 2967.503 10049.884999999998 2967.4750000000004 L 10054.347999999998 2967.4750000000004 L 10054.347999999998 2958.6330000000003 Z" stroke-linecap="round"/>
      </g>
      <g transform="matrix(1 0 0 1 55.01 12.25)">
        <path style="stroke: none; stroke-width: 1; stroke-dasharray: none; stroke-linecap: butt; stroke-dashoffset: 0; stroke-linejoin: miter; stroke-miterlimit: 4; fill: rgb(0,88,89); fill-rule: nonzero; opacity: 1;" vector-effect="non-scaling-stroke" transform=" translate(-10110.91, -2933.13)" d="M 10117.361 2936.46 L 10108.692000000001 2936.46 L 10108.692000000001 2927.9 L 10104.410000000002 2927.9 L 10104.410000000002 2942.187 L 10100.197000000002 2942.187 L 10100.197000000002 2946.365 L 10108.697000000002 2946.365 L 10108.697000000002 2940.433 L 10121.614000000001 2940.433 L 10121.614000000001 2919.892 L 10117.366000000002 2919.892 Z" stroke-linecap="round"/>
      </g>
      <g transform="matrix(1 0 0 1 70.67 9.28)" id="Rectangle_20018">
        <rect style="stroke: none; stroke-width: 1; stroke-dasharray: none; stroke-linecap: butt; stroke-dashoffset: 0; stroke-linejoin: miter; stroke-miterlimit: 4; fill: rgb(0,88,89); fill-rule: nonzero; opacity: 1;" vector-effect="non-scaling-stroke" x="-2.105" y="-10.27" rx="2.106" ry="2.106" width="4.21" height="20.54"/>
      </g>
      <g transform="matrix(1 0 0 1 34.68 1.52)">
        <path style="stroke: none; stroke-width: 1; stroke-dasharray: none; stroke-linecap: butt; stroke-dashoffset: 0; stroke-linejoin: miter; stroke-miterlimit: 4; fill: rgb(210,210,210); fill-rule: nonzero; opacity: 1;" vector-effect="non-scaling-stroke" transform=" translate(-10017.91, -2924.6)" d="M 10009.736 2922.69 L 10009.401000000002 2925.2400000000002 L 10023.660000000002 2925.128 L 10023.471000000001 2926.5730000000003 L 10025.895000000002 2926.5450000000005 L 10026.409000000001 2922.6350000000007 Z" stroke-linecap="round"/>
      </g>
      <g transform="matrix(1 0 0 1 3 15.39)">
        <path style="stroke: none; stroke-width: 1; stroke-dasharray: none; stroke-linecap: butt; stroke-dashoffset: 0; stroke-linejoin: miter; stroke-miterlimit: 4; fill: rgb(0,88,89); fill-rule: nonzero; opacity: 1;" vector-effect="non-scaling-stroke" transform=" translate(-9840.88, -2967)" d="M 9840.162 2958.281 L 9836.126 2958.281 L 9836.126 2971.757 L 9832.021 2971.757 L 9832.021 2964.7380000000003 L 9827.844000000001 2964.7380000000003 L 9827.844000000001 2975.722 L 9840.162 2975.722 L 9840.162 2971.2 L 9853.92 2971.2 L 9853.92 2960.1099999999997 L 9840.162 2960.1099999999997 Z M 9849.884 2964.317 L 9849.884 2967.194 L 9840.162 2967.194 L 9840.162 2964.317 Z" stroke-linecap="round"/>
      </g>
      <g transform="matrix(1 0 0 1 -68.64 -20.47)">
        <path style="stroke: none; stroke-width: 1; stroke-dasharray: none; stroke-linecap: butt; stroke-dashoffset: 0; stroke-linejoin: miter; stroke-miterlimit: 4; fill: rgb(0,0,0); fill-rule: nonzero; opacity: 1;" vector-effect="non-scaling-stroke" transform=" translate(-9530.71, -2818.94)" d="M 9530.711 2819.763 C 9530.939287647976 2819.769833013448 9531.160303138231 2819.6822949632983 9531.322 2819.5209999999997 C 9531.476986470589 2819.3665729003455 9531.564104140143 2819.156788791241 9531.564104140143 2818.9379999999996 C 9531.564104140143 2818.719211208758 9531.476986470589 2818.5094270996537 9531.322 2818.3549999999996 C 9530.978099909325 2818.0325375526995 9530.442900090675 2818.0325375526995 9530.099 2818.3549999999996 C 9529.944013529412 2818.5094270996537 9529.856895859857 2818.719211208758 9529.856895859857 2818.9379999999996 C 9529.856895859857 2819.156788791241 9529.944013529412 2819.3665729003455 9530.099 2819.5209999999997 C 9530.260804183763 2819.682755500664 9530.482326876145 2819.7703510751026 9530.711 2819.763 Z" stroke-linecap="round"/>
      </g>
      <g transform="matrix(1 0 0 1 -70.86 -20.47)">
        <path style="stroke: none; stroke-width: 1; stroke-dasharray: none; stroke-linecap: butt; stroke-dashoffset: 0; stroke-linejoin: miter; stroke-miterlimit: 4; fill: rgb(0,0,0); fill-rule: nonzero; opacity: 1;" vector-effect="non-scaling-stroke" transform=" translate(-9519.59, -2818.94)" d="M 9519.59 2819.763 C 9519.818287647977 2819.769833013448 9520.039303138232 2819.6822949632983 9520.201000000001 2819.5209999999997 C 9520.35598647059 2819.3665729003455 9520.443104140144 2819.156788791241 9520.443104140144 2818.9379999999996 C 9520.443104140144 2818.719211208758 9520.35598647059 2818.5094270996537 9520.201000000001 2818.3549999999996 C 9519.857099909326 2818.0325375526995 9519.321900090676 2818.0325375526995 9518.978000000001 2818.3549999999996 C 9518.823013529412 2818.5094270996537 9518.735895859858 2818.719211208758 9518.735895859858 2818.9379999999996 C 9518.735895859858 2819.156788791241 9518.823013529412 2819.3665729003455 9518.978000000001 2819.5209999999997 C 9519.139804183764 2819.682755500664 9519.361326876146 2819.7703510751026 9519.59 2819.763 Z" stroke-linecap="round"/>
      </g>
      <g transform="matrix(1 0 0 1 -43.75 -20.47)">
        <path style="stroke: none; stroke-width: 1; stroke-dasharray: none; stroke-linecap: butt; stroke-dashoffset: 0; stroke-linejoin: miter; stroke-miterlimit: 4; fill: rgb(0,0,0); fill-rule: nonzero; opacity: 1;" vector-effect="non-scaling-stroke" transform=" translate(-9655.46, -2818.94)" d="M 9655.457 2819.763 C 9655.686090881882 2819.7693628642182 9655.907856053902 2819.6819570472326 9656.071 2819.5209999999997 C 9656.22875462422 2819.368060949826 9656.317796496825 2819.157719991195 9656.317796496825 2818.9379999999996 C 9656.317796496825 2818.7182800088044 9656.22875462422 2818.5079390501733 9656.071 2818.3549999999996 C 9655.907727000089 2818.194241315579 9655.686049891427 2818.106870207604 9655.457 2818.1129999999994 C 9655.232371659593 2818.1084946704846 9655.015644127847 2818.1959081082887 9654.857 2818.3549999999996 C 9654.69924537578 2818.5079390501733 9654.610203503174 2818.7182800088044 9654.610203503174 2818.9379999999996 C 9654.610203503174 2819.157719991195 9654.69924537578 2819.368060949826 9654.857 2819.5209999999997 C 9655.015512494314 2819.68029048061 9655.232328676606 2819.767739674134 9655.457 2819.763 Z" stroke-linecap="round"/>
      </g>
      <g transform="matrix(1 0 0 1 -47.54 -17.68)">
        <path style="stroke: none; stroke-width: 1; stroke-dasharray: none; stroke-linecap: butt; stroke-dashoffset: 0; stroke-linejoin: miter; stroke-miterlimit: 4; fill: rgb(0,0,0); fill-rule: nonzero; opacity: 1;" vector-effect="non-scaling-stroke" transform=" translate(-9538.8, -2815.8)" d="M 9564.007 2810.7 L 9562.4 2810.7 L 9562.4 2819.2329999999997 L 9560.324 2819.2329999999997 C 9559.953684697115 2819.2786363905852 9559.584428092023 2819.140491856829 9559.335000000001 2818.863 C 9559.150913992717 2818.5857520854283 9559.058888346228 2818.2575389432045 9559.072 2817.9249999999997 L 9559.072 2810.7 L 9557.437 2810.7 L 9557.437 2818.4939999999997 C 9557.445861552616 2818.6803516243826 9557.409133348 2818.866052172966 9557.33 2819.035 C 9557.24124390466 2819.1776245622177 9557.077707992948 2819.2556846632738 9556.911 2819.2349999999997 L 9545.191 2819.2349999999997 C 9544.85709772715 2819.2413978511495 9544.523120581394 2819.227036833882 9544.191 2819.1919999999996 C 9544.702597501324 2818.749545301979 9545.11872112253 2818.2075298248074 9545.414 2817.5989999999997 C 9545.60591915599 2817.1784843413257 9545.712315055569 2816.7240072878567 9545.727 2816.2619999999997 C 9545.721066623104 2816.0627809943353 9545.66203232869 2815.868761851293 9545.556 2815.7 C 9545.42495933021 2815.4877882657106 9545.250047341067 2815.3060570957055 9545.043 2815.167 C 9544.778080172015 2814.9887736926025 9544.48495616637 2814.856580513587 9544.176 2814.776 C 9543.767446069449 2814.6693026798357 9543.346183963631 2814.6191684515875 9542.923999999999 2814.627 C 9542.608699335331 2814.6274896916893 9542.29431725282 2814.6610059051764 9541.985999999999 2814.727 C 9541.673828596633 2814.7932203280157 9541.367247391821 2814.883489603151 9541.069 2814.997 C 9540.77678188143 2815.1083100851542 9540.493605058706 2815.242041760585 9540.222 2815.397 C 9539.972101399202 2815.5385193828306 9539.734295906928 2815.7004010400183 9539.511 2815.881 L 9539.569000000001 2817.019 C 9539.624487757259 2817.170776968476 9539.695885527468 2817.316254115288 9539.782000000001 2817.453 C 9539.882000000001 2817.629 9540.01 2817.814 9540.151000000002 2818.008 C 9540.292000000003 2818.2019999999998 9540.451000000001 2818.3999999999996 9540.621000000001 2818.598 C 9540.782286622823 2818.7873017240418 9540.953528541975 2818.9678901806897 9541.134000000002 2819.139 C 9540.997968486925 2819.171353105162 9540.86002627699 2819.1950671412524 9540.721000000001 2819.21 C 9540.53673036467 2819.2305614672346 9540.351409068302 2819.2402449223605 9540.166000000001 2819.239 L 9519.358 2819.239 L 9519.358 2817.547 C 9519.362893056668 2817.1570147521606 9519.29821430522 2816.7692808756815 9519.167 2816.402 C 9519.047047611293 2816.066453662239 9518.857967389908 2815.7598370870187 9518.612 2815.502 C 9518.36705405954 2815.24905006146 9518.071665979021 2815.0504211676403 9517.744999999999 2814.919 C 9517.389603882557 2814.778354199203 9517.010186219819 2814.708381022369 9516.627999999999 2814.7129999999997 C 9516.205791510944 2814.7080679773444 9515.787857529267 2814.7979425784733 9515.404999999999 2814.9759999999997 C 9515.04120914331 2815.1470372233166 9514.716741367212 2815.3914945824326 9514.452 2815.6939999999995 C 9514.180928799084 2816.006378194324 9513.96912728887 2816.365593555648 9513.827 2816.7539999999995 C 9513.67374942714 2817.1608383793464 9513.59614116414 2817.5922589854626 9513.598 2818.0269999999996 C 9513.59869371158 2818.3799539930556 9513.656438516688 2818.730475090726 9513.769 2819.0649999999996 C 9513.884168758568 2819.407828679806 9514.073689060322 2819.720964025227 9514.324 2819.9819999999995 C 9514.603127166722 2820.2677198818333 9514.939941461425 2820.4906718542384 9515.312 2820.6359999999995 C 9515.781834961928 2820.813825707565 9516.281817491343 2820.8984015566302 9516.784 2820.8849999999993 L 9540.166 2820.8849999999993 C 9540.584637809678 2820.8837448126465 9541.001848490581 2820.836121085405 9541.41 2820.7429999999995 C 9541.82210974679 2820.6521812457586 9542.217756104139 2820.4983749891935 9542.583 2820.2869999999994 C 9542.895011072429 2820.4552281699166 9543.224245872092 2820.589336031286 9543.565 2820.6869999999994 C 9544.083179752337 2820.832116982736 9544.620029282638 2820.8995180537086 9545.158000000001 2820.8869999999993 L 9556.976 2820.8869999999993 C 9557.336421063097 2820.895623924766 9557.693371607334 2820.814889201093 9558.015000000001 2820.651999999999 C 9558.30962300009 2820.49497267898 9558.548262111743 2820.2503937944166 9558.698000000002 2819.9519999999993 C 9558.843795928991 2820.2041558919436 9559.039442249798 2820.42396028019 9559.273000000003 2820.5979999999995 C 9559.560351674168 2820.8039821949947 9559.908850081583 2820.906875556941 9560.262000000002 2820.8899999999994 L 9564.002000000002 2820.8899999999994 Z M 9517.741 2819.2329999999997 L 9516.741 2819.2329999999997 C 9516.546318513545 2819.23373552333 9516.352474431726 2819.207485803917 9516.165 2819.1549999999997 C 9515.984961984554 2819.1056271361895 9515.817556020707 2819.0183441896625 9515.674 2818.899 C 9515.527633207752 2818.7748407794406 9515.411086826523 2818.6193316783897 9515.333 2818.444 C 9515.24212274912 2818.2305219596637 9515.198459240384 2817.9999240541583 9515.205 2817.768 C 9515.201639966128 2817.5585191567393 9515.240054538197 2817.350468554027 9515.318 2817.156 C 9515.38862277673 2816.984801065908 9515.490337609313 2816.8281602237325 9515.617999999999 2816.694 C 9515.737402883544 2816.5679188027057 9515.88000874303 2816.466057474501 9516.037999999999 2816.394 C 9516.191718899327 2816.323453452349 9516.358865990176 2816.286953985572 9516.527999999998 2816.287 C 9516.882626697277 2816.267498108689 9517.222445387102 2816.431366232449 9517.427999999998 2816.721 C 9517.654456884084 2817.0947657253782 9517.761228926402 2817.5288324595017 9517.733999999999 2817.965 Z M 9544.066 2817.0429999999997 C 9543.981588919369 2817.229236514889 9543.876960499309 2817.405629299991 9543.754 2817.5689999999995 C 9543.612230875842 2817.7592201438297 9543.452495486776 2817.935364409341 9543.277 2818.0949999999993 C 9543.213915170467 2818.3561997264956 9542.978607338187 2818.5390777642174 9542.7099183493 2818.5357281241068 C 9542.441229360411 2818.5323784839957 9542.210553686922 2818.3436912128986 9542.154 2818.080999999999 Q 9541.890000000001 2817.8109999999992 9541.663 2817.5259999999994 Q 9541.436 2817.2409999999995 9541.279 2816.9999999999995 C 9541.19886510046 2816.882155543383 9541.127666085633 2816.758476503542 9541.066 2816.6299999999997 C 9541.332007945524 2816.478960153591 9541.620237850866 2816.3709583155237 9541.92 2816.3099999999995 C 9542.247673286154 2816.2319146695722 9542.583159214408 2816.1913208722535 9542.92 2816.1889999999994 Q 9543.147 2816.1889999999994 9543.368 2816.2099999999996 C 9543.502588950772 2816.222566907192 9543.636208966524 2816.243946109712 9543.768 2816.2739999999994 C 9543.87468496483 2816.2952242447027 9543.976443607857 2816.33626689739 9544.068 2816.3949999999995 C 9544.136883650819 2816.434739232092 9544.180084443515 2816.507498461895 9544.181999999999 2816.5869999999995 C 9544.175413025905 2816.745085767248 9544.135903980852 2816.9000565905176 9544.066 2817.042 Z" stroke-linecap="round"/>
      </g>
      <g transform="matrix(1 0 0 1 -68.64 -3.52)">
        <path style="stroke: none; stroke-width: 1; stroke-dasharray: none; stroke-linecap: butt; stroke-dashoffset: 0; stroke-linejoin: miter; stroke-miterlimit: 4; fill: rgb(0,0,0); fill-rule: nonzero; opacity: 1;" vector-effect="non-scaling-stroke" transform=" translate(-9530.71, -2903.86)" d="M 9531.322 2904.447 C 9531.476986470589 2904.292572900346 9531.564104140143 2904.0827887912415 9531.564104140143 2903.864 C 9531.564104140143 2903.6452112087586 9531.476986470589 2903.435427099654 9531.322 2903.281 C 9530.978099909325 2902.9585375527 9530.442900090675 2902.9585375527 9530.099 2903.281 C 9529.944013529412 2903.435427099654 9529.856895859857 2903.6452112087586 9529.856895859857 2903.864 C 9529.856895859857 2904.0827887912415 9529.944013529412 2904.292572900346 9530.099 2904.447 C 9530.442704026927 2904.769957806123 9530.978295973073 2904.769957806123 9531.322 2904.447 Z" stroke-linecap="round"/>
      </g>
      <g transform="matrix(1 0 0 1 -70.86 -3.52)">
        <path style="stroke: none; stroke-width: 1; stroke-dasharray: none; stroke-linecap: butt; stroke-dashoffset: 0; stroke-linejoin: miter; stroke-miterlimit: 4; fill: rgb(0,0,0); fill-rule: nonzero; opacity: 1;" vector-effect="non-scaling-stroke" transform=" translate(-9519.59, -2903.86)" d="M 9519.59 2904.689 C 9519.818308583843 2904.695952491618 9520.039369690327 2904.608396374156 9520.201000000001 2904.4469999999997 C 9520.35598647059 2904.2925729003455 9520.443104140144 2904.082788791241 9520.443104140144 2903.8639999999996 C 9520.443104140144 2903.645211208758 9520.35598647059 2903.4354270996537 9520.201000000001 2903.2809999999995 C 9519.857099909326 2902.9585375526995 9519.321900090676 2902.9585375526995 9518.978000000001 2903.2809999999995 C 9518.823013529412 2903.4354270996537 9518.735895859858 2903.645211208758 9518.735895859858 2903.8639999999996 C 9518.735895859858 2904.082788791241 9518.823013529412 2904.2925729003455 9518.978000000001 2904.4469999999997 C 9519.139804183764 2904.608755500664 9519.361326876146 2904.6963510751025 9519.59 2904.689 Z" stroke-linecap="round"/>
      </g>
      <g transform="matrix(1 0 0 1 -60.41 1.27)">
        <path style="stroke: none; stroke-width: 1; stroke-dasharray: none; stroke-linecap: butt; stroke-dashoffset: 0; stroke-linejoin: miter; stroke-miterlimit: 4; fill: rgb(0,0,0); fill-rule: nonzero; opacity: 1;" vector-effect="non-scaling-stroke" transform=" translate(-9525.92, -2918.82)" d="M 9513.831 2917.77 C 9513.677749427141 2918.176838379347 9513.600141164141 2918.608258985463 9513.602 2919.043 C 9513.602711240184 2919.3959525413297 9513.66045558468 2919.746470843014 9513.773000000001 2920.081 C 9513.888078329004 2920.423870603085 9514.077609977723 2920.7370246965525 9514.328000000001 2920.998 C 9514.60705002197 2921.2840567915764 9514.94386600532 2921.5073507886364 9515.316 2921.6530000000002 C 9515.78583496193 2921.8308257075655 9516.285817491344 2921.915401556631 9516.788 2921.902 L 9528.636 2921.902 C 9528.998323641603 2921.911647154057 9529.355913035683 2921.818001046975 9529.667000000001 2921.632 C 9529.9449748638 2921.4632662147123 9530.177138703475 2921.2286983116073 9530.343 2920.949 C 9530.489675517641 2921.202776503614 9530.685091010926 2921.42504038641 9530.918000000001 2921.603 C 9531.207386590218 2921.8140753825774 9531.560213737026 2921.9199235266196 9531.918000000001 2921.9030000000002 L 9538.232000000002 2921.9030000000002 L 9538.232000000002 2916.2430000000004 L 9536.611000000003 2916.2430000000004 L 9536.611000000003 2920.2530000000006 L 9531.960000000003 2920.2530000000006 C 9531.592633504657 2920.2961092020096 9531.227209984165 2920.158143178967 9530.980000000003 2919.8830000000007 C 9530.790936841253 2919.6077561217967 9530.69620106515 2919.2786370181548 9530.710000000003 2918.9450000000006 L 9530.710000000003 2916.245000000001 L 9529.088000000003 2916.245000000001 L 9529.088000000003 2919.516000000001 C 9529.09649234457 2919.7018966937594 9529.06013602476 2919.887108134295 9528.982000000004 2920.056000000001 C 9528.89291105518 2920.198788075964 9528.72900614065 2920.2768380352645 9528.562000000004 2920.2560000000008 L 9519.362000000003 2920.2560000000008 L 9519.362000000003 2918.5630000000006 C 9519.36693585864 2918.173011478095 9519.302255852373 2917.7852700792837 9519.171000000002 2917.4180000000006 C 9519.051047611296 2917.0824536622395 9518.86196738991 2916.775837087019 9518.616000000002 2916.5180000000005 C 9518.371054059542 2916.2650500614604 9518.075665979024 2916.066421167641 9517.749000000002 2915.9350000000004 C 9517.39363233724 2915.794255121902 9517.01419497919 2915.724278312808 9516.632000000001 2915.7290000000003 C 9516.209791510946 2915.724067977345 9515.79185752927 2915.813942578474 9515.409000000001 2915.992 C 9515.045209143313 2916.163037223317 9514.720741367215 2916.407494582433 9514.456000000002 2916.71 C 9514.184928799086 2917.0223781943246 9513.973127288871 2917.3815935556486 9513.831 2917.77 Z M 9515.323 2918.175 C 9515.3937249428 2918.0038547413174 9515.495428204651 2917.8472317180667 9515.623 2917.713 C 9515.742583082165 2917.587125911558 9515.885146214014 2917.485295103094 9516.043 2917.413 C 9516.196718899328 2917.342453452349 9516.363865990177 2917.305953985572 9516.533 2917.306 C 9516.887626697278 2917.286498108689 9517.227445387103 2917.450366232449 9517.432999999999 2917.7400000000002 C 9517.659516604836 2918.1137409672956 9517.766293317594 2918.547826688441 9517.739 2918.9840000000004 L 9517.739 2920.2500000000005 L 9516.739 2920.2500000000005 C 9516.544318513545 2920.2507355233306 9516.350474431725 2920.2244858039176 9516.163 2920.1720000000005 C 9515.982995891949 2920.122540806691 9515.815607388606 2920.0352669638073 9515.672 2919.9160000000006 C 9515.52570823825 2919.791770164009 9515.409175662619 2919.636279483913 9515.331 2919.4610000000007 C 9515.24012274912 2919.2475219596645 9515.196459240384 2919.016924054159 9515.203 2918.7850000000008 C 9515.20210052749 2918.5757158929287 9515.242894089022 2918.3683486217956 9515.323 2918.175 Z" stroke-linecap="round"/>
      </g>
      <g transform="matrix(1 0 0 1 -55.34 6.15)">
        <path style="stroke: none; stroke-width: 1; stroke-dasharray: none; stroke-linecap: butt; stroke-dashoffset: 0; stroke-linejoin: miter; stroke-miterlimit: 4; fill: rgb(0,0,0); fill-rule: nonzero; opacity: 1;" vector-effect="non-scaling-stroke" transform=" translate(-9597.36, -2952.34)" d="M 9596.753 2951.751 C 9596.59462216199 2951.9022949978507 9596.506854381583 2952.1130102061848 9596.511 2952.3320000000003 C 9596.503590957755 2952.5571520758717 9596.59145358203 2952.7749932930824 9596.753 2952.9320000000002 C 9597.099542251966 2953.2477111742915 9597.629457748035 2953.2477111742915 9597.976 2952.9320000000002 C 9598.137546417971 2952.7749932930824 9598.225409042247 2952.5571520758717 9598.218 2952.3320000000003 C 9598.222145618418 2952.1130102061848 9598.13437783801 2951.9022949978507 9597.976 2951.751 C 9597.629276071577 2951.4357583596243 9597.099723928424 2951.4357583596243 9596.753 2951.751 Z" stroke-linecap="round"/>
      </g>
      <g transform="matrix(1 0 0 1 -57.55 6.15)">
        <path style="stroke: none; stroke-width: 1; stroke-dasharray: none; stroke-linecap: butt; stroke-dashoffset: 0; stroke-linejoin: miter; stroke-miterlimit: 4; fill: rgb(0,0,0); fill-rule: nonzero; opacity: 1;" vector-effect="non-scaling-stroke" transform=" translate(-9586.31, -2952.34)" d="M 9585.7 2951.751 C 9585.541886685693 2951.9023978195737 9585.454471257113 2952.1131379191806 9585.459 2952.3320000000003 C 9585.45133031568 2952.5570011232994 9585.538820830703 2952.7748198329045 9585.7 2952.9320000000002 C 9586.04687248616 2953.2478482271404 9586.577127513841 2953.2478482271404 9586.924 2952.9320000000002 C 9587.085546417971 2952.7749932930824 9587.173409042247 2952.5571520758717 9587.166000000001 2952.3320000000003 C 9587.170145618418 2952.1130102061848 9587.08237783801 2951.9022949978507 9586.924 2951.751 C 9586.57694607006 2951.4356208847526 9586.047053929942 2951.4356208847526 9585.7 2951.751 Z" stroke-linecap="round"/>
      </g>
      <g transform="matrix(1 0 0 1 -49.14 6.15)">
        <path style="stroke: none; stroke-width: 1; stroke-dasharray: none; stroke-linecap: butt; stroke-dashoffset: 0; stroke-linejoin: miter; stroke-miterlimit: 4; fill: rgb(0,0,0); fill-rule: nonzero; opacity: 1;" vector-effect="non-scaling-stroke" transform=" translate(-9628.45, -2952.34)" d="M 9629.053 2951.751 C 9628.892786335204 2951.594984320357 9628.676570348349 2951.509939365527 9628.453 2951.5150000000003 C 9628.22527870161 2951.508233732362 9628.004392741766 2951.5932730252216 9627.84 2951.751 C 9627.67915284952 2951.9009834568697 9627.589399003262 2952.112104852317 9627.593 2952.3320000000003 C 9627.585870193403 2952.5580962793824 9627.675759603208 2952.776451121013 9627.84 2952.9320000000002 C 9628.004291552019 2953.0899950629932 9628.225154935386 2953.1753859632513 9628.453 2953.1690000000003 C 9628.676693903279 2953.1736813272764 9628.892887707038 2953.0882847747916 9629.053 2952.9320000000002 C 9629.217240396792 2952.776451121013 9629.307129806597 2952.5580962793824 9629.3 2952.3320000000003 C 9629.303600996738 2952.112104852317 9629.21384715048 2951.9009834568697 9629.053 2951.751 Z" stroke-linecap="round"/>
      </g>
      <g transform="matrix(1 0 0 1 -36.66 0.67)">
        <path style="stroke: none; stroke-width: 1; stroke-dasharray: none; stroke-linecap: butt; stroke-dashoffset: 0; stroke-linejoin: miter; stroke-miterlimit: 4; fill: rgb(0,0,0); fill-rule: nonzero; opacity: 1;" vector-effect="non-scaling-stroke" transform=" translate(-9652.05, -2902.13)" d="M 9661.007 2904.158 L 9658.207 2904.158 C 9657.87309622529 2904.1645249880603 9657.539111164115 2904.1501636304297 9657.207 2904.115 C 9657.718571332489 2903.6722771834243 9658.134974864599 2903.130340233547 9658.431 2902.522 C 9658.622969820915 2902.1015016437555 9658.729368135873 2901.64701427283 9658.744 2901.185 C 9658.738553667215 2900.985701416272 9658.679481155865 2900.7915566713677 9658.573 2900.623 C 9658.44242084751 2900.4107574205204 9658.267825187124 2900.22900061 9658.061 2900.09 C 9657.795821565556 2899.9115873131045 9657.502336594762 2899.779383829717 9657.193 2899.699 C 9656.784448419585 2899.592290256388 9656.363184594858 2899.542155823573 9655.940999999999 2899.55 C 9655.626040358069 2899.550683431604 9655.312009942383 2899.5841978836515 9655.003999999999 2899.65 C 9654.691525769116 2899.7163133037475 9654.384619294871 2899.8065799138194 9654.086 2899.92 C 9653.794148823496 2900.031415828751 9653.511312390434 2900.1651446387095 9653.24 2900.32 C 9652.989989415148 2900.4609618156155 9652.752165795682 2900.6225213208218 9652.529 2900.8030000000003 L 9652.586000000001 2901.9410000000003 C 9652.641949599583 2902.092579443495 9652.713324319455 2902.2380096238912 9652.799 2902.3750000000005 Q 9652.956 2902.6390000000006 9653.169000000002 2902.9300000000003 Q 9653.382000000003 2903.221 9653.638 2903.5200000000004 C 9653.799369609087 2903.7089098439833 9653.970608322377 2903.88916112113 9654.151000000002 2904.0600000000004 C 9654.015314041315 2904.0923931978905 9653.877701925812 2904.1161079071153 9653.739000000001 2904.1310000000003 C 9653.554715349255 2904.151377445455 9653.369404823206 2904.161060337807 9653.184000000001 2904.1600000000003 L 9646.712000000001 2904.1600000000003 C 9646.338334986494 2904.2065926174123 9645.965348347501 2904.068587560985 9645.712000000001 2903.7900000000004 C 9645.527913992717 2903.512752085429 9645.435888346228 2903.184538943205 9645.449 2902.8520000000003 L 9645.449 2900.1520000000005 L 9643.827000000001 2900.1520000000005 L 9643.827000000001 2905.4520000000007 C 9643.849445720985 2905.8520568681956 9643.776437512372 2906.251716827093 9643.614000000001 2906.618000000001 C 9643.43632809879 2906.9036063710423 9643.108755603143 2907.0597791937585 9642.775000000001 2907.018000000001 C 9642.658374521405 2907.017255531233 9642.541873271919 2907.0102454273956 9642.426000000001 2906.9970000000008 Q 9642.234000000002 2906.975000000001 9642.063000000002 2906.9470000000006 L 9641.663000000002 2906.8620000000005 L 9641.492000000002 2908.4830000000006 C 9641.550035076541 2908.5022557002285 9641.609574664732 2908.516638859174 9641.670000000002 2908.5260000000007 L 9641.876000000002 2908.5540000000005 C 9641.990000000002 2908.5730000000003 9642.125000000002 2908.5900000000006 9642.282000000003 2908.6040000000007 C 9642.439000000004 2908.618000000001 9642.601000000002 2908.625000000001 9642.772000000003 2908.625000000001 C 9643.168261427843 2908.6332006330395 9643.56139665449 2908.5532756608104 9643.923000000003 2908.391000000001 C 9644.247372764952 2908.240527303924 9644.534023436016 2908.019474879398 9644.762000000002 2907.744000000001 C 9644.99555432062 2907.4589553199617 9645.169951688342 2907.1302179815852 9645.275000000003 2906.777000000001 C 9645.391689678916 2906.389514723689 9645.449336589378 2905.9866605833226 9645.446000000004 2905.582000000001 L 9645.446000000004 2905.198000000001 C 9645.604618684574 2905.3716801641563 9645.79246306224 2905.5162018745405 9646.001000000004 2905.625000000001 C 9646.232696154186 2905.7493026643015 9646.492082549225 2905.8129452148087 9646.755000000005 2905.810000000001 L 9653.184000000005 2905.810000000001 C 9653.602651740244 2905.8089839637773 9654.019888813345 2905.7613572239216 9654.428000000005 2905.668000000001 C 9654.8401337874 2905.576716683818 9655.235991444766 2905.4232965525566 9655.602000000006 2905.213000000001 C 9655.91326488213 2905.381328672873 9656.241848187097 2905.5154443075535 9656.582000000006 2905.613000000001 C 9657.100176824253 2905.7581315032853 9657.637028530347 2905.825532847428 9658.175000000007 2905.813000000001 L 9662.613000000007 2905.813000000001 L 9662.613000000007 2895.630000000001 L 9661.005000000006 2895.630000000001 Z M 9657.082 2901.968 C 9656.996797020434 2902.15382268015 9656.892217642475 2902.330132785301 9656.77 2902.4939999999997 C 9656.627802217206 2902.6838669927865 9656.468102234245 2902.859972215087 9656.293 2903.0199999999995 C 9656.112227715568 2903.1875800192 9655.914108690196 2903.335415027981 9655.702 2903.4609999999993 C 9655.509676973525 2903.3273933755318 9655.33113018317 2903.174975383766 9655.169 2903.0059999999994 C 9654.99641827928 2902.8297243947154 9654.832875446731 2902.6448208656707 9654.679 2902.4519999999993 C 9654.541844669104 2902.2831905655376 9654.413667447921 2902.1072806812595 9654.295 2901.9249999999993 C 9654.13809214497 2901.820652835103 9654.057511346175 2901.633566229506 9654.089490403676 2901.4478628486186 C 9654.121469461177 2901.2621594677316 9654.259987488995 2901.1128027835894 9654.442760468079 2901.0669503691615 C 9654.62553344716 2901.0210979547332 9654.818149629524 2901.087382714827 9654.934 2901.2359999999994 C 9655.261706642126 2901.158101109932 9655.597171288588 2901.11750988771 9655.934 2901.1149999999993 Q 9656.161 2901.1149999999993 9656.382 2901.1359999999995 C 9656.518241760936 2901.148554307999 9656.653525752812 2901.1699325190607 9656.787 2901.1999999999994 C 9656.893664651305 2901.2212923065604 9656.995411015625 2901.262330006836 9657.087 2901.3209999999995 C 9657.155786134515 2901.3606991961096 9657.19868584195 2901.433590734407 9657.199999999999 2901.5129999999995 C 9657.192818161666 2901.671234657127 9657.152624521126 2901.8262186100574 9657.082 2901.968 Z" stroke-linecap="round"/>
      </g>
      <g transform="matrix(1 0 0 1 -22.96 -0.74)" id="Rectangle_20019">
        <rect style="stroke: none; stroke-width: 1; stroke-dasharray: none; stroke-linecap: butt; stroke-dashoffset: 0; stroke-linejoin: miter; stroke-miterlimit: 4; fill: rgb(0,0,0); fill-rule: nonzero; opacity: 1;" vector-effect="non-scaling-stroke" x="-0.805" y="-5.09" rx="0" ry="0" width="1.61" height="10.18"/>
      </g>
      <g transform="matrix(1 0 0 1 -68.71 13.41)">
        <path style="stroke: none; stroke-width: 1; stroke-dasharray: none; stroke-linecap: butt; stroke-dashoffset: 0; stroke-linejoin: miter; stroke-miterlimit: 4; fill: rgb(0,0,0); fill-rule: nonzero; opacity: 1;" vector-effect="non-scaling-stroke" transform=" translate(-9530.35, -2988.79)" d="M 9529.742 2988.206 C 9529.587013529412 2988.3604270996543 9529.499895859857 2988.570211208759 9529.499895859857 2988.789 C 9529.499895859857 2989.0077887912416 9529.587013529412 2989.217572900346 9529.742 2989.3720000000003 C 9530.085900090675 2989.6944624473003 9530.621099909325 2989.6944624473003 9530.965 2989.3720000000003 C 9531.286698715863 2989.0499006985488 9531.286698715863 2988.5280993014517 9530.965 2988.206 C 9530.621099909325 2987.8835375527 9530.085900090675 2987.8835375527 9529.742 2988.206 Z" stroke-linecap="round"/>
      </g>
      <g transform="matrix(1 0 0 1 -69.9 18.21)">
        <path style="stroke: none; stroke-width: 1; stroke-dasharray: none; stroke-linecap: butt; stroke-dashoffset: 0; stroke-linejoin: miter; stroke-miterlimit: 4; fill: rgb(0,0,0); fill-rule: nonzero; opacity: 1;" vector-effect="non-scaling-stroke" transform=" translate(-9516.27, -3003.74)" d="M 9518.4 3001.443 C 9518.155286034049 3001.189772959553 9517.859835093197 3000.991101796327 9517.533 3000.86 C 9517.17764659967 3000.71920547991 9516.798199362953 3000.649226848967 9516.416 3000.654 C 9515.99378124902 3000.64896570928 9515.575824843692 3000.738845132503 9515.193 3000.917 C 9514.827810532053 3001.089071528446 9514.501247976264 3001.333313106631 9514.233 3001.6349999999998 C 9513.958828900855 3001.9453130465185 9513.746365504268 3002.30507534745 9513.607 3002.6949999999997 C 9513.458808872838 3003.1026258921124 9513.383986585106 3003.5332772495576 9513.386 3003.9669999999996 C 9513.386234079271 3004.3199919035765 9513.443991012611 3004.6705866217485 9513.557 3005.0049999999997 C 9513.67219884923 3005.3478147263945 9513.86171537821 3005.660943838242 9514.112000000001 3005.9219999999996 C 9514.391457133774 3006.2077904222933 9514.72861221715 3006.4307423176706 9515.101 3006.5759999999996 C 9515.570434356761 3006.75402035774 9516.07012873257 3006.838604925773 9516.572 3006.8249999999994 L 9519.147 3006.8249999999994 L 9519.147 3003.4829999999993 C 9519.151572345392 3003.0929545450576 9519.086554667934 3002.705218916462 9518.955000000002 3002.3379999999993 C 9518.834423245646 3002.0042346867995 9518.645376502864 3001.6993755250187 9518.4 3001.443 Z M 9517.525 3005.1760000000004 L 9516.525 3005.1760000000004 C 9516.330312602282 3005.1768259278297 9516.136456086446 3005.1505745246436 9515.949 3005.0980000000004 C 9515.769040884697 3005.048426350119 9515.601675470985 3004.9611645458212 9515.458 3004.8420000000006 C 9515.311931255235 3004.717560492793 9515.195439500989 3004.562124281115 9515.117 3004.3870000000006 C 9515.02612274912 3004.1735219596644 9514.982459240384 3003.942924054159 9514.989 3003.7110000000007 C 9514.985639966128 3003.50151915674 9515.024054538197 3003.2934685540276 9515.101999999999 3003.0990000000006 C 9515.17262277673 3002.9278010659086 9515.274337609313 3002.771160223733 9515.401999999998 3002.6370000000006 C 9515.521712157706 3002.5112744653356 9515.664244875517 3002.4094653811844 9515.821999999998 3002.3370000000004 C 9515.971422969504 3002.267351177479 9516.134144123072 3002.230849786637 9516.298999999999 3002.2300000000005 C 9516.656415034355 3002.2104284959228 9516.999256554047 3002.3739375283917 9517.208999999999 3002.6640000000007 C 9517.440527841463 3003.0358715459784 9517.549968546657 3003.470837160228 9517.521999999999 3003.908000000001 Z" stroke-linecap="round"/>
      </g>
      <g transform="matrix(1 0 0 1 -70.93 13.41)">
        <path style="stroke: none; stroke-width: 1; stroke-dasharray: none; stroke-linecap: butt; stroke-dashoffset: 0; stroke-linejoin: miter; stroke-miterlimit: 4; fill: rgb(0,0,0); fill-rule: nonzero; opacity: 1;" vector-effect="non-scaling-stroke" transform=" translate(-9519.23, -2988.79)" d="M 9518.621 2988.206 C 9518.46601352941 2988.3604270996543 9518.378895859856 2988.570211208759 9518.378895859856 2988.789 C 9518.378895859856 2989.0077887912416 9518.46601352941 2989.217572900346 9518.621 2989.3720000000003 C 9518.964900090674 2989.6944624473003 9519.500099909324 2989.6944624473003 9519.844 2989.3720000000003 C 9519.998986470588 2989.217572900346 9520.086104140142 2989.0077887912416 9520.086104140142 2988.789 C 9520.086104140142 2988.570211208759 9519.998986470588 2988.3604270996543 9519.844 2988.206 C 9519.500099909324 2987.8835375527 9518.964900090674 2987.8835375527 9518.621 2988.206 Z" stroke-linecap="round"/>
      </g>
      <g transform="matrix(1 0 0 1 -58.39 19.63)">
        <path style="stroke: none; stroke-width: 1; stroke-dasharray: none; stroke-linecap: butt; stroke-dashoffset: 0; stroke-linejoin: miter; stroke-miterlimit: 4; fill: rgb(0,0,0); fill-rule: nonzero; opacity: 1;" vector-effect="non-scaling-stroke" transform=" translate(-9554.07, -3005.27)" d="M 9561.059 3001.812 C 9560.779081091174 3001.491465332495 9560.4318060806 3001.2367286974027 9560.042 3001.066 C 9559.5996560798 3000.8779818312496 9559.122552959341 3000.7856282986468 9558.642 3000.7949999999996 C 9558.045765864254 3000.7998168062218 9557.459876448851 3000.951268876675 9556.936 3001.2359999999994 C 9556.372971022845 3001.5331498988726 9555.882338151341 3001.950717053953 9555.499 3002.4589999999994 L 9555.499 3001.263999999999 L 9553.863 3001.263999999999 L 9553.863 3005.2889999999993 L 9551.474 3005.2889999999993 C 9551.100354931557 3005.335420365155 9550.727445323562 3005.1974438101975 9550.474 3004.9189999999994 C 9550.289333116063 3004.6416451535974 9550.197263390854 3004.312924727851 9550.211 3003.9799999999996 L 9550.211 3001.2799999999997 L 9548.59 3001.2799999999997 L 9548.59 3006.58 C 9548.612291866502 3006.9804707857543 9548.53893681871 3007.380495742639 9548.376 3007.747 C 9548.198154921347 3008.0324126261817 9547.87071411011 3008.1885226672966 9547.537 3008.147 C 9547.420371420634 3008.1463493452934 9547.3038651011 3008.1393389363816 9547.188 3008.1259999999997 C 9547.06 3008.1119999999996 9546.939 3008.095 9546.826000000001 3008.0759999999996 L 9546.426000000001 3007.9909999999995 L 9546.255000000001 3009.6129999999994 C 9546.313156345142 3009.6315877536194 9546.372668681573 3009.6456299903048 9546.433 3009.6549999999993 L 9546.639000000001 3009.682999999999 C 9546.753 3009.701999999999 9546.888 3009.718999999999 9547.044000000002 3009.7329999999993 C 9547.200000000003 3009.7469999999994 9547.364000000001 3009.7539999999995 9547.535000000002 3009.7539999999995 C 9547.931669822154 3009.762001829734 9548.325158856513 3009.6817327992876 9548.687000000002 3009.5189999999993 C 9549.011162483544 3009.3681811531865 9549.297742099858 3009.1471835229668 9549.526000000002 3008.8719999999994 C 9549.759086046339 3008.5867970705926 9549.93312807209 3008.258088791488 9550.038000000002 3007.9049999999993 C 9550.15470458557 3007.517518015324 9550.212351820948 3007.114661604351 9550.209000000003 3006.709999999999 L 9550.209000000003 3006.325999999999 C 9550.367548331822 3006.499756697186 9550.555407120406 3006.644289494889 9550.764000000003 3006.7529999999992 C 9550.995664738577 3006.8773844871685 9551.255072525239 3006.9410322862827 9551.518000000004 3006.937999999999 L 9561.886000000004 3006.937999999999 L 9561.886000000004 3004.363999999999 C 9561.890101191511 3003.8822785271864 9561.820634231937 3003.4027541751825 9561.680000000004 3002.941999999999 C 9561.552153865467 3002.5269562833096 9561.340829582912 3002.142420954351 9561.059 3001.812 Z M 9560.248 3005.29 L 9555.526 3005.29 C 9555.622794454324 3004.475773896057 9556.00552639197 3003.722358989172 9556.606 3003.1639999999998 C 9556.87082332149 3002.9201061740723 9557.175151946476 3002.7229688536636 9557.506 3002.5809999999997 C 9557.806357203548 3002.4482546255426 9558.130631607977 3002.3781596336094 9558.458999999999 3002.3749999999995 C 9558.706692798156 3002.372157647823 9558.953316495445 3002.4079197708224 9559.189999999999 3002.4809999999998 C 9559.405647145022 3002.547894622426 9559.601212178028 3002.6675020591333 9559.758999999998 3002.8289999999997 C 9559.928445973583 3003.0135036579104 9560.05241136667 3003.235066114618 9560.120999999997 3003.4759999999997 C 9560.214264927336 3003.8009037339493 9560.257758630943 3004.138064227031 9560.249999999998 3004.4759999999997 Z" stroke-linecap="round"/>
      </g>
      <g transform="matrix(1 0 0 1 -37.39 16.25)">
        <path style="stroke: none; stroke-width: 1; stroke-dasharray: none; stroke-linecap: butt; stroke-dashoffset: 0; stroke-linejoin: miter; stroke-miterlimit: 4; fill: rgb(0,0,0); fill-rule: nonzero; opacity: 1;" vector-effect="non-scaling-stroke" transform=" translate(-9646.07, -2985.69)" d="M 9655.6 2989.083 L 9654.134 2989.083 C 9654.092369270838 2989.0732182751153 9654.049764063127 2989.068186163968 9654.007 2989.068 L 9653.493999999999 2989.068 C 9653.262174789677 2989.0788851852626 9653.031017253956 2989.0353933229862 9652.819 2988.9410000000003 C 9652.671443687705 2988.872113386893 9652.542263710644 2988.76931764918 9652.442 2988.641 C 9652.359426438441 2988.530270714084 9652.303633928645 2988.401913713022 9652.278999999999 2988.266 C 9652.25742560644 2988.1589424089916 9652.245378510524 2988.0501839042063 9652.242999999999 2987.9410000000003 C 9652.297619016761 2987.060543684454 9652.0382490026 2986.1892446887987 9651.510999999999 2985.4820000000004 C 9650.980282110975 2984.879792968584 9650.201163418746 2984.556482701226 9649.399999999998 2984.606 C 9648.605242782665 2984.6006234454303 9647.844215058642 2984.926778184297 9647.299999999997 2985.5060000000003 C 9647.034226066016 2985.793001611569 9646.826718095484 2986.128886035227 9646.688999999997 2986.4950000000003 C 9646.53841948438 2986.8946943849214 9646.463478899435 2987.318905569376 9646.467999999997 2987.7460000000005 C 9646.47357973117 2987.971801163064 9646.449712127287 2988.1973668279215 9646.396999999997 2988.4170000000004 C 9646.36242189522 2988.565421922161 9646.297380459942 2988.7050396628088 9646.205999999996 2988.827 C 9646.135328663639 2988.9194407131963 9646.038982254066 2988.9890049078344 9645.928999999996 2989.027 C 9645.827766857254 2989.0591609024873 9645.722218516572 2989.0756844446387 9645.615999999996 2989.076 L 9645.061999999996 2989.076 C 9645.025492732488 2989.076169374613 9644.989171621392 2989.081213973376 9644.953999999996 2989.091 L 9643.923999999995 2989.091 C 9643.590097727145 2989.0973978511497 9643.256120581389 2989.083036833882 9642.923999999995 2989.048 C 9643.435884404098 2988.6058160269818 9643.852056772632 2988.0637370547206 9644.146999999995 2987.455 C 9644.339377281607 2987.034640913014 9644.44579507432 2986.580070341592 9644.459999999995 2986.118 C 9644.45455366721 2985.918701416272 9644.39548115586 2985.7245566713677 9644.288999999995 2985.556 C 9644.158346878605 2985.3438146528465 9643.983765029287 2985.1620722198636 9643.776999999995 2985.023 C 9643.511774643095 2984.844671661429 9643.218304514314 2984.712474863787 9642.908999999994 2984.632 C 9642.500776340417 2984.5253563089873 9642.079851797507 2984.4752222107513 9641.657999999994 2984.483 C 9641.342366221721 2984.483441864992 9641.027647632016 2984.516958221723 9640.718999999994 2984.583 C 9640.406828596628 2984.649220328016 9640.100247391816 2984.739489603151 9639.801999999994 2984.853 C 9639.509979574665 2984.964018650925 9639.227112832954 2985.097761791213 9638.955999999995 2985.253 C 9638.705679266806 2985.3943479814725 9638.467527725967 2985.556237512044 9638.243999999995 2985.737 L 9638.300999999996 2986.875 C 9638.357728078245 2987.02642114343 9638.429416168128 2987.1718072696444 9638.514999999996 2987.309 C 9638.614999999996 2987.485 9638.743999999995 2987.67 9638.884999999997 2987.864 C 9639.025999999998 2988.058 9639.184999999996 2988.255 9639.354999999996 2988.454 C 9639.515950549154 2988.642970387581 9639.686508943802 2988.823541995222 9639.865999999996 2988.9950000000003 C 9639.730324465081 2989.0274439433606 9639.592709088816 2989.0511592145126 9639.453999999996 2989.0660000000003 C 9639.270062939313 2989.0865360948555 9639.085075893146 2989.0962195322904 9638.899999999996 2989.0950000000003 L 9636.551999999996 2989.0950000000003 L 9636.551999999996 2980.5620000000004 L 9634.930999999997 2980.5620000000004 L 9634.930999999997 2990.7450000000003 L 9638.899999999996 2990.7450000000003 C 9639.318641165255 2990.7438023116924 9639.73585817927 2990.69617786154 9640.143999999997 2990.6030000000005 C 9640.555983884755 2990.5122659590324 9640.951593394258 2990.3588112899583 9641.316999999997 2990.1480000000006 C 9641.628649791593 2990.3162534938506 9641.957556078292 2990.450364110242 9642.297999999997 2990.5480000000007 C 9642.816165098902 2990.6931896395686 9643.353025520366 2990.7605920779192 9643.890999999998 2990.7480000000005 L 9645.696999999998 2990.7480000000005 C 9645.999220640153 2990.7516966452354 9646.294308804636 2990.656144287212 9646.536999999998 2990.4760000000006 C 9646.780802093359 2990.2970019462596 9646.97632295285 2990.0602464591066 9647.105999999998 2989.7870000000007 C 9647.338444183535 2990.0973685828703 9647.636978578399 2990.3521816933594 9647.979999999998 2990.533000000001 C 9648.397436000083 2990.738156081301 9648.85917633584 2990.836756882166 9649.323999999997 2990.8200000000006 C 9649.552999999996 2990.8200000000006 9649.773999999998 2990.8100000000004 9649.992999999997 2990.7910000000006 C 9650.206673786479 2990.7729542555035 9650.417099764592 2990.7272387075423 9650.618999999997 2990.6550000000007 C 9650.830868932188 2990.576181198658 9651.027956551276 2990.4622557653256 9651.201999999997 2990.3180000000007 C 9651.415032423407 2990.1383470308797 9651.597415198414 2989.9252293808267 9651.741999999998 2989.687000000001 C 9651.887780408606 2989.996872700874 9652.11657977561 2990.260286192992 9652.402999999998 2990.448000000001 C 9652.71323485737 2990.651632419858 9653.077996237913 2990.756248494583 9653.448999999999 2990.748000000001 L 9657.203999999998 2990.748000000001 L 9657.203999999998 2980.55 L 9655.6 2980.55 Z M 9642.800000000001 2986.893 C 9642.714844700213 2987.079057447236 9642.609906761967 2987.2554068258855 9642.487000000001 2987.419 C 9642.345306689574 2987.608977112278 9642.185927440081 2987.7850978795755 9642.011 2987.9449999999997 C 9641.947852565276 2988.206707798236 9641.712114833095 2988.3899651715737 9641.442917233602 2988.3866151570023 C 9641.17371963411 2988.383265142431 9640.942615271459 2988.1941981785794 9640.886 2987.9309999999996 Q 9640.624 2987.6609999999996 9640.397 2987.3759999999997 C 9640.259935701299 2987.2072272383207 9640.131440287745 2987.031672465518 9640.012 2986.85 C 9639.932613798544 2986.731688008507 9639.861446371538 2986.6080638395274 9639.799 2986.48 C 9640.065114393516 2986.3291878825175 9640.353307265874 2986.221199920978 9640.653 2986.16 C 9640.980703625652 2986.0820842371822 9641.316170193724 2986.0414927824454 9641.653 2986.0389999999998 C 9641.805 2986.0389999999998 9641.953 2986.046 9642.101 2986.06 C 9642.237251943721 2986.072472715172 9642.372541225299 2986.093851762137 9642.506000000001 2986.124 C 9642.612631064987 2986.1454046631234 9642.714357250323 2986.1864342245426 9642.806 2986.245 C 9642.874357704522 2986.2851296918016 9642.91710149102 2986.357756302489 9642.919 2986.437 C 9642.911208816638 2986.595580677659 9642.870693018047 2986.7508344941125 9642.8 2986.893 Z M 9650.388 2988.751 C 9649.827416398944 2989.2886673440116 9648.942583601058 2989.2886673440116 9648.382000000001 2988.751 C 9648.16305247269 2988.46467580731 9648.050299992425 2988.1112197563193 9648.063000000002 2987.751 C 9648.059603723617 2987.5248708410627 9648.095468987214 2987.2998670647235 9648.169000000002 2987.0860000000002 C 9648.232142549883 2986.900473792519 9648.327987637742 2986.72774942924 9648.452000000001 2986.576 C 9648.566354247007 2986.4378016756814 9648.709753447947 2986.326496581619 9648.872000000001 2986.25 C 9649.032476840583 2986.1745639680075 9649.207677483808 2986.135630491735 9649.385000000002 2986.136 C 9649.558092109652 2986.1361536448658 9649.728948052936 2986.1751087999346 9649.885000000002 2986.25 C 9650.047246552056 2986.326496581619 9650.190645752997 2986.4378016756814 9650.305000000002 2986.576 C 9650.429842574227 2986.728527162137 9650.52820811838 2986.900920383848 9650.596000000001 2987.0860000000002 C 9650.674982022803 2987.2986869020183 9650.713970306551 2987.524140890651 9650.711000000001 2987.751 C 9650.722843531581 2988.111583132587 9650.609018668603 2988.4650764958733 9650.389 2988.751 Z" stroke-linecap="round"/>
      </g>
      <g transform="matrix(1 0 0 1 -23.12 16.2)" id="Rectangle_20020">
        <rect style="stroke: none; stroke-width: 1; stroke-dasharray: none; stroke-linecap: butt; stroke-dashoffset: 0; stroke-linejoin: miter; stroke-miterlimit: 4; fill: rgb(0,0,0); fill-rule: nonzero; opacity: 1;" vector-effect="non-scaling-stroke" x="-0.805" y="-5.09" rx="0" ry="0" width="1.61" height="10.18"/>
      </g>
    </g>
  </g>
  <text style="fill: rgb(51, 51, 51); font-family: 'Anek Devanagari'; font-size: 12px; font-weight: 800; white-space: pre;" x="367.144" y="292.017">        </text>
</svg>